<svg width="24" height="8" viewBox="0 0 24 8" fill="none" xmlns="http://www.w3.org/2000/svg">
<path d="M1.50016 0.499969C1.1023 0.499969 0.720635 0.657965 0.439452 0.939422C0.158256 1.22062 0 1.60226 0 2.00013V3.5C0 4.69356 0.474239 5.83798 1.31812 6.68187C2.162 7.52595 3.30662 7.99999 4.50026 7.99999H18.7502C19.9438 7.99999 21.0885 7.52601 21.9324 6.68187C22.7762 5.83798 23.2505 4.69363 23.2505 3.5V2.00013C23.2505 1.46416 22.9646 0.969019 22.5003 0.700895C22.0362 0.433038 21.4644 0.433038 21.0004 0.700895C20.5364 0.969012 20.2505 1.46415 20.2505 2.00013V3.5C20.2505 3.89786 20.0925 4.27926 19.811 4.56071C19.5298 4.84191 19.1482 4.9999 18.7503 4.9999H4.50036C4.1025 4.9999 3.72083 4.84191 3.43965 4.56071C3.15819 4.27925 3.00019 3.89787 3.00019 3.5V2.00013C3.00019 1.60227 2.8422 1.2206 2.561 0.939422C2.27955 0.657965 1.89816 0.499969 1.50029 0.499969H1.50016Z" fill="#247FFF"/>
</svg>
