<svg width="14" height="17" viewBox="0 0 14 17" fill="none" xmlns="http://www.w3.org/2000/svg">
<path d="M6.62515 1.40506e-05C6.22728 1.40506e-05 5.84588 0.158009 5.56443 0.439205C5.28324 0.720662 5.12524 1.10204 5.12524 1.49992V12.5021L2.87511 10.252C2.62426 9.98937 2.2897 9.82222 1.92897 9.77985C1.568 9.73747 1.20389 9.82222 0.898866 10.0197C0.53292 10.2729 0.298278 10.6755 0.258521 11.1189C0.218499 11.562 0.377536 12.0001 0.692482 12.3145L4.30748 15.9219C4.92323 16.5359 5.75738 16.8806 6.62691 16.8806C7.49644 16.8806 8.33055 16.5358 8.94635 15.9219L12.565 12.3145C12.88 12.0001 13.039 11.562 12.9992 11.1189C12.9595 10.6755 12.7248 10.2729 12.3589 10.0197C12.0539 9.82222 11.6895 9.73747 11.3288 9.77985C10.9681 9.82222 10.6332 9.98937 10.3827 10.252L8.13253 12.5021V1.49992C8.13253 1.10075 7.97349 0.718044 7.69046 0.436594C7.40769 0.155136 7.02422 -0.00207529 6.62506 2.06922e-05L6.62515 1.40506e-05Z" fill="#247FFF"/>
</svg>
